<svg width="51" height="40" viewBox="0 0 51 40" fill="none" xmlns="http://www.w3.org/2000/svg">
<path d="M50.6725 7.47136L46.3587 0H16.8586L12.5516 8.33207H12.4574L14.6465 12.1229L10.6197 12.1272L6.28048 20.4126L8.44414 24.1669L4.34685 24.1618L0.0398949 32.4939H0L4.33157 39.9924L14.1975 39.9941L18.496 31.6519L16.3111 27.8695L30.3116 27.8797L34.5999 19.5502L32.4405 15.8306H46.4292L50.6725 7.47136Z" fill="#1F42FF"/>
<path opacity="0.4" d="M46.4291 15.8303H32.4379L30.2768 12.1073L14.6431 12.1251L12.4557 8.33936H42.0984L46.4291 15.8303ZM25.9826 20.4199H6.27623L8.43649 24.17L14.178 24.1793L16.3119 27.876L30.3116 27.8853L25.9817 20.4207L25.9826 20.4199ZM9.86591 32.5088L0.0356507 32.4995H0L4.33071 39.9997H14.1966L9.86591 32.5088Z" fill="black"/>
</svg>
