<svg width="70" height="70" viewBox="0 0 70 70" fill="none" xmlns="http://www.w3.org/2000/svg">
<g id="product-network 1">
<g id="&#60;Group&#62;">
<g id="&#60;Group&#62;_2">
<path id="&#60;Compound Path&#62;" d="M53.1885 36.7835L48.7028 35.8911C48.7136 35.6432 48.7203 35.3943 48.7203 35.1438C48.721 32.7313 48.2024 30.3468 47.1998 28.1525C46.1972 25.9582 44.734 24.0053 42.9097 22.4266L48.2039 14.9481C49.893 15.8075 51.8448 15.9959 53.6671 15.4755C55.4894 14.9551 57.0473 13.7644 58.0278 12.1426C59.0084 10.5208 59.3389 8.58801 58.953 6.73254C58.5672 4.87706 57.4935 3.23631 55.9477 2.13988C54.4019 1.04345 52.4985 0.572553 50.6197 0.821782C48.741 1.07101 47.0262 2.0219 45.8197 3.48345C44.6133 4.945 44.0045 6.80893 44.1158 8.70083C44.2271 10.5927 45.0501 12.3725 46.4196 13.6825L41.1678 21.1016C38.4149 19.2705 35.1815 18.2953 31.8753 18.2988C31.0946 18.2988 30.3147 18.3524 29.5414 18.4593L29.8421 20.6259C30.5161 20.5329 31.1955 20.4863 31.8758 20.4863C33.8007 20.4863 35.7066 20.8654 37.4849 21.602C39.2632 22.3386 40.879 23.4183 42.2401 24.7793C43.6011 26.1404 44.6807 27.7562 45.4173 29.5345C46.1539 31.3128 46.533 33.2187 46.533 35.1435C46.533 37.0683 46.1539 38.9743 45.4173 40.7526C44.6807 42.5309 43.6011 44.1467 42.2401 45.5077C40.879 46.8688 39.2632 47.9484 37.4849 48.685C35.7066 49.4216 33.8007 49.8007 31.8758 49.8007C29.6256 49.8073 27.4048 49.2905 25.3887 48.2911L24.418 50.2519C26.8234 51.4378 29.4772 52.0323 32.1586 51.986C34.8401 51.9397 37.4717 51.2539 39.8348 49.9857L45.0656 57.7103C43.8705 58.9032 43.1678 60.5021 43.0973 62.1893C43.0268 63.8764 43.5935 65.5283 44.6849 66.8169C45.7763 68.1054 47.3125 68.9362 48.9882 69.1442C50.664 69.3522 52.3567 68.9222 53.73 67.9396C55.1033 66.957 56.0567 65.4937 56.4007 63.8405C56.7448 62.1873 56.4544 60.4652 55.5871 59.0163C54.7199 57.5674 53.3393 56.4977 51.7197 56.0199C50.1001 55.542 48.36 55.691 46.8452 56.4371L41.6909 48.8248C45.2636 46.261 47.6941 42.4034 48.4645 38.074L52.7574 38.928C52.7574 38.9502 52.7558 38.9721 52.7558 38.9944C52.7548 40.4579 53.2989 41.8693 54.282 42.9535C55.2652 44.0376 56.6169 44.7168 58.0735 44.8584C59.5302 45.0001 60.9874 44.5942 62.161 43.7198C63.3347 42.8454 64.1406 41.5652 64.4216 40.1289C64.7026 38.6926 64.4386 37.2031 63.681 35.9509C62.9235 34.6987 61.7267 33.7735 60.324 33.3557C58.9214 32.938 57.4134 33.0576 56.0942 33.6913C54.7749 34.325 53.739 35.4273 53.1884 36.7833L53.1885 36.7835ZM46.2905 8.27761C46.2905 7.23079 46.6009 6.20748 47.1825 5.33708C47.7641 4.46667 48.5907 3.78826 49.5578 3.38764C50.5249 2.98701 51.5891 2.88216 52.6158 3.08635C53.6425 3.29053 54.5857 3.79458 55.3259 4.53475C56.0662 5.27493 56.5703 6.21799 56.7746 7.24468C56.9789 8.27137 56.8741 9.33558 56.4736 10.3028C56.0731 11.2699 55.3948 12.0966 54.5244 12.6783C53.6541 13.2599 52.6308 13.5704 51.584 13.5705C50.1806 13.5691 48.8351 13.011 47.8427 12.0187C46.8503 11.0264 46.2921 9.68099 46.2905 8.27761ZM54.3549 62.474C54.3548 63.3722 54.0885 64.2502 53.5894 64.997C53.0904 65.7438 52.3812 66.3258 51.5513 66.6695C50.7215 67.0132 49.8084 67.1031 48.9275 66.9278C48.0466 66.7526 47.2375 66.3201 46.6024 65.6849C45.9673 65.0498 45.5348 64.2406 45.3596 63.3597C45.1844 62.4788 45.2744 61.5657 45.6181 60.7359C45.9618 59.9061 46.5439 59.1969 47.2907 58.6979C48.0376 58.1989 48.9156 57.9326 49.8137 57.9326C51.0178 57.934 52.172 58.4129 53.0234 59.2643C53.8747 60.1157 54.3536 61.27 54.3549 62.474ZM62.3354 38.9945C62.3354 39.7255 62.1186 40.4401 61.7125 41.0479C61.3064 41.6557 60.7291 42.1294 60.0538 42.4092C59.3784 42.6889 58.6353 42.7621 57.9183 42.6195C57.2013 42.4769 56.5428 42.1249 56.0258 41.608C55.5089 41.0911 55.1569 40.4325 55.0143 39.7155C54.8717 38.9986 54.9449 38.2554 55.2246 37.5801C55.5044 36.9047 55.9781 36.3275 56.5859 35.9213C57.1937 35.5152 57.9083 35.2984 58.6394 35.2984C59.6193 35.2995 60.5588 35.6893 61.2517 36.3822C61.9446 37.0751 62.3343 38.0146 62.3354 38.9945Z" fill="white"/>
</g>
<g id="&#60;Group&#62;_3">
<path id="&#60;Compound Path&#62;_2" d="M40.1953 44.6913V22.4882C40.1955 22.2569 40.1224 22.0315 39.9864 21.8444C39.8504 21.6574 39.6585 21.5183 39.4384 21.4472L23.1725 16.2011C22.9543 16.1309 22.7195 16.1309 22.5013 16.2011L6.23082 21.4476C6.01015 21.5184 5.81757 21.6573 5.68067 21.8443C5.54377 22.0313 5.46959 22.2568 5.46875 22.4886V44.6917C5.46962 44.9235 5.54383 45.149 5.68075 45.336C5.81767 45.523 6.01027 45.6618 6.23096 45.7327L22.4995 50.9786C22.7184 51.0489 22.9538 51.0489 23.1726 50.9786L39.4382 45.7324C39.6583 45.6613 39.8502 45.5222 39.9863 45.3351C40.1223 45.148 40.1955 44.9226 40.1953 44.6913ZM22.8374 18.3918L35.5404 22.4886L22.8374 26.5855L10.1343 22.4886L22.8374 18.3918ZM7.65625 23.9907L21.6016 28.4853V48.3894L7.65625 43.8948V23.9907ZM23.7891 48.4811V28.5771L38.0078 23.9907V43.8948L23.7891 48.4811Z" fill="white"/>
</g>
</g>
</g>
</svg>
