<svg width="1311" height="705" viewBox="0 0 1311 705" fill="none" xmlns="http://www.w3.org/2000/svg">
<path opacity="0.25" d="M1158.5 679.765C1158.5 670.087 1166.12 662.265 1175.5 662.265C1184.88 662.265 1192.5 670.087 1192.5 679.765C1192.5 689.444 1184.88 697.265 1175.5 697.265C1166.12 697.265 1158.5 689.444 1158.5 679.765Z" stroke="#1F42FF"/>
<path opacity="0.25" d="M1262.5 648.265C1262.5 642.719 1266.78 638.265 1272 638.265C1277.22 638.265 1281.5 642.719 1281.5 648.265C1281.5 653.811 1277.22 658.265 1272 658.265C1266.78 658.265 1262.5 653.811 1262.5 648.265Z" stroke="#1F42FF"/>
<rect opacity="0.25" x="1299.33" y="493.14" width="34" height="35" transform="rotate(-162.818 1299.33 493.14)" stroke="#1F42FF"/>
<path opacity="0.25" d="M1297.33 211.192L1269.31 229.639L1268.06 196.113L1297.33 211.192Z" stroke="#1F42FF"/>
<path opacity="0.25" d="M394.5 626.765C394.5 617.087 386.876 609.265 377.5 609.265C368.124 609.265 360.5 617.087 360.5 626.765C360.5 636.444 368.124 644.265 377.5 644.265C386.876 644.265 394.5 636.444 394.5 626.765Z" stroke="#1F42FF"/>
<path opacity="0.25" d="M34.5 572C34.5 562.322 26.8757 554.5 17.5 554.5C8.12434 554.5 0.5 562.322 0.5 572C0.5 581.678 8.12434 589.5 17.5 589.5C26.8757 589.5 34.5 581.678 34.5 572Z" stroke="#1F42FF"/>
<path opacity="0.25" d="M236.5 664.265C236.5 658.719 232.224 654.265 227 654.265C221.776 654.265 217.5 658.719 217.5 664.265C217.5 669.811 221.776 674.265 227 674.265C232.224 674.265 236.5 669.811 236.5 664.265Z" stroke="#1F42FF"/>
<path opacity="0.25" d="M54.5 75.2651C54.5 69.719 50.224 65.2651 45 65.2651C39.776 65.2651 35.5 69.719 35.5 75.2651C35.5 80.8113 39.776 85.2651 45 85.2651C50.224 85.2651 54.5 80.8113 54.5 75.2651Z" stroke="#1F42FF"/>
<rect opacity="0.25" x="0.329983" y="-0.625389" width="34" height="35" transform="matrix(0.955372 -0.295405 -0.295405 -0.955372 280.392 43.6397)" stroke="#1F42FF"/>
<path opacity="0.25" d="M567.535 674.515L584 703.746L600.465 674.515H567.535Z" stroke="#1F42FF"/>
<path opacity="0.25" d="M1021.53 14.5151L1038 43.7463L1054.47 14.5151H1021.53Z" stroke="#1F42FF"/>
</svg>
