<svg width="70" height="83" viewBox="0 0 70 83" fill="none" xmlns="http://www.w3.org/2000/svg">
<g id="Group 18">
<path id="Vector" d="M62.9203 5.81095H38.1419C37.7038 5.81095 37.2836 5.63741 36.9738 5.32852C36.664 5.01963 36.49 4.60068 36.49 4.16384C36.49 3.72699 36.664 3.30805 36.9738 2.99915C37.2836 2.69026 37.7038 2.51672 38.1419 2.51672H62.9203C63.3584 2.51672 63.7786 2.69026 64.0884 2.99915C64.3982 3.30805 64.5722 3.72699 64.5722 4.16384C64.5722 4.60068 64.3982 5.01963 64.0884 5.32852C63.7786 5.63741 63.3584 5.81095 62.9203 5.81095ZM31.5343 5.81095H6.75581C6.3177 5.81095 5.89753 5.63741 5.58774 5.32852C5.27795 5.01963 5.10391 4.60068 5.10391 4.16384C5.10391 3.72699 5.27795 3.30805 5.58774 2.99915C5.89753 2.69026 6.3177 2.51672 6.75581 2.51672H31.5343C31.9724 2.51672 32.3926 2.69026 32.7023 2.99915C33.0121 3.30805 33.1862 3.72699 33.1862 4.16384C33.1862 4.60068 33.0121 5.01963 32.7023 5.32852C32.3926 5.63741 31.9724 5.81095 31.5343 5.81095Z" fill="#1F42FF"/>
<path id="Vector_2" d="M59.593 25.5763C59.2127 25.5756 58.8444 25.4442 58.55 25.2041C58.2557 24.9641 58.0535 24.6301 57.9774 24.2586C57.0155 19.5692 54.6139 15.2945 51.1058 12.0273C47.5976 8.76011 43.1568 6.66239 38.3991 6.02509C38.1795 6.00226 37.9668 5.93578 37.7734 5.82958C37.5801 5.72338 37.41 5.57961 37.2733 5.40677C37.1366 5.23393 37.0361 5.03552 36.9776 4.82327C36.9191 4.61101 36.9038 4.38923 36.9328 4.17101C36.9617 3.95278 37.0342 3.74256 37.146 3.55275C37.2578 3.36295 37.4066 3.19741 37.5837 3.06592C37.7607 2.93443 37.9624 2.83965 38.1768 2.7872C38.3912 2.73474 38.6139 2.72567 38.8319 2.76051C44.2702 3.48801 49.3466 5.88513 53.3569 9.61931C57.3671 13.3535 60.1124 18.2396 61.2118 23.5998C61.2996 24.0274 61.2136 24.4723 60.9726 24.8368C60.7316 25.2012 60.3554 25.4553 59.9267 25.5434C59.8168 25.5654 59.705 25.5764 59.593 25.5763ZM11.0272 25.5763C10.9162 25.5762 10.8056 25.5651 10.6968 25.5434C10.4842 25.5002 10.2822 25.4156 10.1024 25.2945C9.92253 25.1734 9.76839 25.0182 9.64873 24.8377C9.52908 24.6572 9.44626 24.455 9.40501 24.2426C9.36375 24.0302 9.36487 23.8118 9.40831 23.5998C10.5084 18.2402 13.2539 13.3548 17.2641 9.62128C21.2743 5.88774 26.3504 3.4911 31.7882 2.76381C32.0062 2.72896 32.229 2.73804 32.4434 2.79049C32.6578 2.84295 32.8594 2.93772 33.0365 3.06921C33.2135 3.2007 33.3623 3.36624 33.4741 3.55605C33.5859 3.74585 33.6584 3.95608 33.6874 4.1743C33.7163 4.39252 33.7011 4.61431 33.6426 4.82656C33.5841 5.03881 33.4835 5.23722 33.3468 5.41006C33.2101 5.58291 33.0401 5.72668 32.8467 5.83288C32.6533 5.93908 32.4406 6.00556 32.221 6.02838C27.4644 6.66612 23.0246 8.76363 19.5172 12.0301C16.0097 15.2966 13.6084 19.5703 12.646 24.2586C12.5699 24.6307 12.3671 24.965 12.0721 25.2052C11.7771 25.4453 11.408 25.5764 11.0272 25.5763Z" fill="#1F42FF"/>
<path id="Vector_3" d="M32.0063 7.45807L38.6138 7.45807V0.869619L32.0063 0.869619V7.45807Z" fill="#212D4D"/>
<path id="Vector_4" d="M3.924 7.45808C5.74864 7.45808 7.2278 5.9832 7.2278 4.16385C7.2278 2.3445 5.74864 0.869629 3.924 0.869629C2.09937 0.869629 0.620209 2.3445 0.620209 4.16385C0.620209 5.9832 2.09937 7.45808 3.924 7.45808Z" fill="#212D4D"/>
<path id="Vector_5" d="M66.6961 7.45808C68.5208 7.45808 69.9999 5.9832 69.9999 4.16385C69.9999 2.3445 68.5208 0.869629 66.6961 0.869629C64.8715 0.869629 63.3923 2.3445 63.3923 4.16385C63.3923 5.9832 64.8715 7.45808 66.6961 7.45808Z" fill="#212D4D"/>
<path id="Vector_6" d="M7.22778 30.5176H13.8354V23.9292H7.22778L7.22778 30.5176Z" fill="#212D4D"/>
<path id="Vector_7" d="M56.7847 30.5176H63.3923V23.9292H56.7847V30.5176Z" fill="#212D4D"/>
<path id="Vector_8" d="M35.6296 14.5946C35.5591 14.4873 35.4683 14.3947 35.3623 14.3219C35.3288 14.2953 35.2935 14.2709 35.2567 14.249C35.1142 14.1654 34.9531 14.1187 34.7879 14.1131C34.6542 14.1117 34.5216 14.1366 34.3977 14.1864C34.2737 14.2362 34.1607 14.3098 34.0653 14.4031C33.9981 14.4728 33.9415 14.5518 33.8972 14.6378L19.2186 41.2196C18.8637 41.8604 18.6525 42.5704 18.5996 43.3005C18.5467 44.0307 18.6534 44.7636 18.9123 45.4486L24.6385 60.6473L24.092 60.641C23.283 60.6318 22.5034 60.9434 21.9248 61.5072C21.3461 62.071 21.0157 62.8409 21.0063 63.6476L20.958 67.7046C20.9532 68.1042 21.0275 68.5009 21.1766 68.8719C21.3256 69.243 21.5466 69.5811 21.8267 69.8669C22.1069 70.1528 22.4408 70.3808 22.8093 70.5379C23.1779 70.6951 23.5739 70.7783 23.9747 70.7827L44.2999 71.0163C45.1033 71.0068 45.8721 70.6892 46.4468 70.1293C47.0214 69.5694 47.3576 68.8103 47.3856 68.0097L47.4412 63.9456C47.4504 63.139 47.1379 62.3617 46.5724 61.7847C46.007 61.2077 45.2348 60.8783 44.4258 60.8689L43.8764 60.8626L49.9524 45.7995C50.2262 45.1204 50.3494 44.3903 50.3134 43.6593C50.2774 42.9283 50.0831 42.2137 49.7439 41.5646L35.6835 14.6526C35.6752 14.6238 35.6437 14.6177 35.6296 14.5946ZM45.4075 63.9222L45.3592 67.9792C45.356 68.2481 45.2459 68.5047 45.053 68.6927C44.8602 68.8806 44.6003 68.9845 44.3306 68.9814L23.9911 68.7477C23.8573 68.7463 23.7251 68.7187 23.6021 68.6663C23.4791 68.6139 23.3676 68.5378 23.2741 68.4424C23.1806 68.347 23.1069 68.2342 23.0572 68.1103C23.0075 67.9865 22.9828 67.8541 22.9845 67.7207L23.0329 63.6637C23.036 63.3948 23.1461 63.1382 23.339 62.9503C23.5319 62.7623 23.7918 62.6585 24.0614 62.6615L26.0951 62.6849L42.3659 62.8733L44.4024 62.8967C44.6721 62.8998 44.9294 63.0096 45.1179 63.2019C45.3064 63.3943 45.4106 63.6534 45.4075 63.9222ZM47.9422 42.5006C48.1457 42.8901 48.2622 43.319 48.2837 43.7577C48.3052 44.1964 48.2312 44.6346 48.0667 45.0421L41.6932 60.8375L26.8174 60.6709L20.8121 44.7289C20.6571 44.3177 20.5932 43.878 20.6249 43.4399C20.6565 43.0018 20.7829 42.5757 20.9954 42.1909L33.7185 19.148L33.4839 39.4458C33.4891 39.4919 33.4977 39.5375 33.5096 39.5824C32.5441 39.812 31.6961 40.3858 31.1253 41.1955C30.5545 42.0053 30.3004 42.9951 30.4106 43.9788C30.5209 44.9624 30.9881 45.8718 31.7241 46.5359C32.4601 47.2 33.4142 47.5728 34.4068 47.5842C35.3994 47.5956 36.3618 47.2448 37.113 46.5978C37.8642 45.9509 38.3522 45.0524 38.4852 44.0715C38.6182 43.0907 38.387 42.0953 37.8351 41.2726C37.2831 40.45 36.4486 39.8569 35.4887 39.6051C35.5016 39.5606 35.5112 39.5151 35.5176 39.4692L35.7521 19.1713L47.9422 42.5006ZM36.489 43.5364C36.4841 43.9375 36.3601 44.328 36.1327 44.6588C35.9053 44.9896 35.5846 45.2457 35.2112 45.3948C34.8378 45.5439 34.4285 45.5793 34.0349 45.4964C33.6414 45.4136 33.2813 45.2163 33.0002 44.9295C32.7191 44.6427 32.5296 44.2792 32.4556 43.8849C32.3816 43.4907 32.4265 43.0835 32.5846 42.7147C32.7427 42.346 33.0069 42.0322 33.3438 41.8131C33.6807 41.594 34.0751 41.4794 34.4773 41.4838C34.7446 41.4868 35.0087 41.5422 35.2545 41.647C35.5003 41.7517 35.723 41.9038 35.9098 42.0944C36.0966 42.285 36.244 42.5105 36.3433 42.7579C36.4427 43.0054 36.4922 43.2699 36.489 43.5364Z" fill="#212D4D"/>
</g>
</svg>
