<svg width="1215" height="507" viewBox="0 0 1215 507" fill="none" xmlns="http://www.w3.org/2000/svg">
<rect opacity="0.25" x="10.6692" y="0.625389" width="34" height="34" transform="rotate(17.1818 10.6692 0.625389)" stroke="#00B377"/>
<path opacity="0.25" d="M13.022 281.911L40.7002 264.109L42.2782 296.98L13.022 281.911Z" stroke="#00B377"/>
<circle opacity="0.25" cx="17.5" cy="17.5" r="17" transform="matrix(-1 0 0 1 941 463)" stroke="#1F42FF"/>
<circle opacity="0.25" cx="10" cy="10" r="9.5" transform="matrix(-1 0 0 1 1215 408)" stroke="#1F42FF"/>
<rect opacity="0.25" x="-0.329983" y="0.625389" width="34" height="34" transform="matrix(-0.955372 0.295405 0.295405 0.955372 647.608 248.125)" stroke="#1F42FF"/>
<path opacity="0.25" d="M716.455 496.5L700 468L683.546 496.5H716.455Z" stroke="#1F42FF"/>
<path opacity="0.25" d="M1059.92 297.849L1032.24 280.047L1030.66 312.918L1059.92 297.849Z" stroke="#1F42FF"/>
</svg>
