<?xml version="1.0" encoding="UTF-8"?>
<svg xmlns="http://www.w3.org/2000/svg" xmlns:xlink="http://www.w3.org/1999/xlink" width="60px" height="60px" viewBox="0 0 60 60" version="1.1">
<g id="surface1">
<path style=" stroke:none;fill-rule:nonzero;fill:rgb(13.72549%,14.509804%,15.294118%);fill-opacity:1;" d="M 18.453125 50.199219 L 18.453125 55.824219 C 18.453125 57.421875 17.648438 58.273438 16.1875 58.273438 C 14.714844 58.273438 13.90625 57.394531 13.90625 55.753906 L 13.90625 50.207031 L 11.882812 50.207031 L 11.882812 55.824219 C 11.882812 58.585938 13.441406 60.171875 16.160156 60.171875 C 18.90625 60.171875 20.480469 58.554688 20.480469 55.742188 L 20.480469 50.199219 Z M 25.902344 50.199219 L 21.503906 60.015625 L 23.570312 60.015625 L 24.421875 58.117188 L 24.480469 57.972656 L 29.046875 57.972656 L 29.945312 60.015625 L 32.066406 60.015625 L 27.710938 50.257812 L 27.671875 50.199219 Z M 37.9375 50.199219 L 35.671875 56.953125 L 33.464844 50.203125 L 31.3125 50.203125 L 34.789062 60.023438 L 36.464844 60.023438 L 38.734375 53.574219 L 41.003906 60.023438 L 42.695312 60.023438 L 46.164062 50.203125 L 44.0625 50.203125 L 41.855469 56.953125 L 39.589844 50.199219 Z M 57.746094 50.199219 L 57.746094 60.007812 L 59.742188 60.007812 L 59.742188 50.199219 Z M 0.453125 50.199219 L 0.453125 60.023438 L 2.476562 60.023438 L 2.476562 56.035156 L 7.050781 56.035156 L 7.050781 60.023438 L 9.074219 60.023438 L 9.074219 50.199219 L 7.050781 50.199219 L 7.050781 54.164062 L 2.476562 54.164062 L 2.476562 50.199219 Z M 47.796875 50.207031 L 47.796875 60.015625 L 55.332031 60.015625 L 55.332031 58.226562 L 49.792969 58.226562 L 49.792969 55.796875 L 53.476562 55.796875 L 53.476562 54.007812 L 49.792969 54.007812 L 49.792969 51.996094 L 55.136719 51.996094 L 55.136719 50.207031 Z M 26.757812 52.683594 L 28.203125 55.972656 L 28.199219 55.972656 L 28.296875 56.199219 L 25.234375 56.199219 L 25.332031 55.972656 L 25.328125 55.972656 Z M 26.757812 52.683594 "/>
<path style=" stroke:none;fill-rule:nonzero;fill:rgb(81.176471%,3.921569%,17.254902%);fill-opacity:1;" d="M 25.664062 0 C 24.863281 0.0703125 22.691406 0.554688 22.691406 0.554688 C 17.800781 1.800781 16.644531 6.171875 16.644531 6.171875 C 16.40625 6.90625 16.296875 7.65625 16.265625 8.367188 L 16.265625 9.332031 C 16.328125 10.824219 16.667969 11.9375 16.667969 11.9375 C 18.300781 19.070312 26.335938 30.789062 28.0625 33.25 C 28.183594 33.371094 28.28125 33.328125 28.28125 33.328125 C 28.46875 33.277344 28.453125 33.101562 28.453125 33.101562 L 28.457031 33.101562 C 31.117188 6.9375 25.664062 0 25.664062 0 Z M 34.453125 0 C 34.453125 0 28.980469 6.9375 31.640625 33.121094 L 31.644531 33.121094 C 31.664062 33.289062 31.785156 33.320312 31.785156 33.320312 C 31.960938 33.390625 32.054688 33.222656 32.054688 33.222656 C 33.824219 30.699219 41.8125 19.042969 43.441406 11.9375 C 43.441406 11.9375 44.320312 8.5 43.472656 6.171875 C 43.472656 6.171875 42.261719 1.734375 37.363281 0.558594 C 37.363281 0.558594 35.953125 0.207031 34.453125 0 Z M 9.203125 7.855469 C 9.203125 7.855469 4.542969 12.210938 4.308594 16.824219 L 4.3125 16.824219 L 4.3125 17.527344 C 4.316406 17.578125 4.320312 17.632812 4.320312 17.683594 C 4.523438 21.40625 7.367188 23.609375 7.367188 23.609375 C 11.953125 28.007812 23.050781 33.5625 25.628906 34.820312 C 25.664062 34.832031 25.796875 34.875 25.875 34.777344 C 25.875 34.777344 25.917969 34.75 25.9375 34.695312 L 25.9375 34.578125 C 25.933594 34.570312 25.929688 34.566406 25.925781 34.558594 L 25.929688 34.558594 C 18.867188 19.371094 9.203125 7.855469 9.203125 7.855469 Z M 50.90625 7.855469 C 50.90625 7.855469 41.269531 19.332031 34.210938 34.492188 L 34.214844 34.488281 C 34.214844 34.488281 34.132812 34.664062 34.265625 34.777344 C 34.265625 34.777344 34.304688 34.808594 34.363281 34.820312 L 34.460938 34.820312 C 34.476562 34.816406 34.496094 34.808594 34.515625 34.796875 C 37.164062 33.503906 48.175781 27.988281 52.738281 23.613281 C 52.738281 23.613281 55.628906 21.328125 55.777344 17.660156 C 56.113281 12.566406 50.90625 7.855469 50.90625 7.855469 Z M 59.574219 22.933594 C 59.574219 22.933594 43.871094 31.230469 35.75 36.621094 L 35.753906 36.625 C 35.753906 36.625 35.605469 36.71875 35.65625 36.890625 C 35.65625 36.890625 35.734375 37.027344 35.84375 37.027344 C 38.753906 37.03125 49.761719 37.046875 50.035156 36.996094 C 50.035156 36.996094 51.460938 36.9375 53.21875 36.273438 C 53.21875 36.273438 57.132812 35.046875 59.167969 30.671875 C 59.167969 30.671875 60.09375 28.84375 60.109375 26.273438 L 60.109375 26.164062 C 60.101562 25.171875 59.960938 24.074219 59.574219 22.933594 Z M 0.527344 22.972656 C -0.902344 27.328125 1.023438 30.835938 1.027344 30.839844 C 3.03125 35.011719 6.855469 36.273438 6.855469 36.273438 C 8.625 36.988281 10.390625 37.039062 10.390625 37.039062 C 10.667969 37.089844 21.378906 37.042969 24.25 37.03125 C 24.371094 37.027344 24.4375 36.910156 24.4375 36.910156 C 24.449219 36.894531 24.453125 36.882812 24.457031 36.871094 L 24.457031 36.761719 C 24.433594 36.6875 24.371094 36.636719 24.371094 36.636719 C 16.257812 31.246094 0.527344 22.972656 0.527344 22.972656 Z M 23.921875 38.367188 L 5.449219 39.007812 C 7.449219 42.523438 10.824219 45.253906 14.339844 44.414062 C 16.765625 43.820312 22.261719 40.046875 24.074219 38.769531 L 24.070312 38.765625 C 24.210938 38.640625 24.160156 38.539062 24.160156 38.539062 C 24.113281 38.378906 23.921875 38.378906 23.921875 38.378906 Z M 36.160156 38.382812 L 36.15625 38.386719 C 36.15625 38.386719 35.996094 38.410156 35.949219 38.527344 C 35.949219 38.527344 35.910156 38.691406 36.019531 38.773438 C 37.785156 40.023438 43.148438 43.714844 45.730469 44.429688 C 45.730469 44.429688 46.125 44.5625 46.78125 44.585938 L 47.171875 44.585938 C 48.902344 44.523438 51.917969 43.648438 54.660156 39.015625 Z M 36.160156 38.382812 "/>
</g>
</svg>
