<svg width="24" height="25" viewBox="0 0 24 25" fill="none" xmlns="http://www.w3.org/2000/svg">
<g id="instagram-fill">
<path id="Vector" d="M13.0291 2.31567C14.1545 2.31753 14.7248 2.32348 15.2176 2.33815L15.4117 2.3445C15.6359 2.35247 15.8571 2.36247 16.1238 2.37497C17.1879 2.42413 17.9138 2.59247 18.5513 2.83997C19.2104 3.09413 19.7671 3.43747 20.3229 3.9933C20.8779 4.54913 21.2213 5.10747 21.4763 5.76497C21.7229 6.40163 21.8913 7.1283 21.9413 8.19247C21.9532 8.45913 21.9628 8.68033 21.9707 8.90458L21.977 9.09866C21.9916 9.59141 21.9983 10.1618 22.0004 11.2872L22.0012 12.0329C22.0013 12.124 22.0013 12.218 22.0013 12.315L22.0012 12.5971L22.0006 13.3428C21.9987 14.4682 21.9928 15.0385 21.9781 15.5313L21.9717 15.7254C21.9638 15.9496 21.9538 16.1708 21.9413 16.4375C21.8921 17.5016 21.7229 18.2275 21.4763 18.865C21.2221 19.5241 20.8779 20.0808 20.3229 20.6366C19.7671 21.1916 19.2079 21.535 18.5513 21.79C17.9138 22.0366 17.1879 22.205 16.1238 22.255C15.8571 22.2669 15.6359 22.2765 15.4117 22.2844L15.2176 22.2907C14.7248 22.3053 14.1545 22.312 13.0291 22.3141L12.2834 22.3149C12.1923 22.315 12.0983 22.315 12.0013 22.315L11.7192 22.3149L10.9735 22.3143C9.84807 22.3124 9.27769 22.3065 8.78494 22.2918L8.59086 22.2854C8.36661 22.2775 8.14541 22.2675 7.87875 22.255C6.81458 22.2058 6.08958 22.0366 5.45125 21.79C4.79291 21.5358 4.23541 21.1916 3.67958 20.6366C3.12375 20.0808 2.78125 19.5216 2.52625 18.865C2.27875 18.2275 2.11125 17.5016 2.06125 16.4375C2.04937 16.1708 2.03968 15.9496 2.03183 15.7254L2.02554 15.5313C2.01091 15.0385 2.00424 14.4682 2.00208 13.3428L2.00195 11.2872C2.00381 10.1618 2.00976 9.59141 2.02443 9.09866L2.03078 8.90458C2.03875 8.68033 2.04875 8.45913 2.06125 8.19247C2.11041 7.12747 2.27875 6.40247 2.52625 5.76497C2.78041 5.10663 3.12375 4.54913 3.67958 3.9933C4.23541 3.43747 4.79375 3.09497 5.45125 2.83997C6.08875 2.59247 6.81375 2.42497 7.87875 2.37497C8.14541 2.36309 8.36661 2.3534 8.59086 2.34555L8.78494 2.33926C9.27769 2.32463 9.84807 2.31796 10.9735 2.3158L13.0291 2.31567ZM12.0013 7.31497C9.23835 7.31497 7.00125 9.5545 7.00125 12.315C7.00125 15.0779 9.24078 17.315 12.0013 17.315C14.7642 17.315 17.0013 15.0754 17.0013 12.315C17.0013 9.55207 14.7617 7.31497 12.0013 7.31497ZM12.0013 9.31497C13.6582 9.31497 15.0013 10.6576 15.0013 12.315C15.0013 13.9719 13.6586 15.315 12.0013 15.315C10.3444 15.315 9.00125 13.9723 9.00125 12.315C9.00125 10.6581 10.3439 9.31497 12.0013 9.31497ZM17.2513 5.81497C16.562 5.81497 16.0013 6.37487 16.0013 7.06412C16.0013 7.75336 16.5612 8.31413 17.2513 8.31413C17.9405 8.31413 18.5013 7.75423 18.5013 7.06412C18.5013 6.37487 17.9396 5.8141 17.2513 5.81497Z" fill="white"/>
</g>
</svg>
