<svg width="24" height="25" viewBox="0 0 24 25" fill="none" xmlns="http://www.w3.org/2000/svg">
<g id="linkedin-box-fill">
<path id="Vector" d="M18.3372 18.6537H15.6717V14.4769C15.6717 13.4809 15.6515 12.1992 14.2827 12.1992C12.893 12.1992 12.6807 13.283 12.6807 14.4034V18.6537H10.0152V10.0647H12.5757V11.2354H12.6102C12.968 10.5604 13.838 9.84795 15.1377 9.84795C17.8385 9.84795 18.338 11.6255 18.338 13.9392L18.3372 18.6537ZM7.0047 8.88945C6.1467 8.88945 5.45745 8.19495 5.45745 7.3407C5.45745 6.4872 6.14745 5.79345 7.0047 5.79345C7.8597 5.79345 8.5527 6.4872 8.5527 7.3407C8.5527 8.19495 7.85895 8.88945 7.0047 8.88945ZM8.3412 18.6537H5.6682V10.0647H8.3412V18.6537ZM19.6707 3.3147H4.3302C3.59595 3.3147 3.00195 3.8952 3.00195 4.61145V20.018C3.00195 20.7349 3.59595 21.3147 4.3302 21.3147H19.6685C20.402 21.3147 21.002 20.7349 21.002 20.018V4.61145C21.002 3.8952 20.402 3.3147 19.6685 3.3147H19.6707Z" fill="white"/>
</g>
</svg>
