<?xml version="1.0" encoding="UTF-8"?>
<svg xmlns="http://www.w3.org/2000/svg" xmlns:xlink="http://www.w3.org/1999/xlink" width="60px" height="60px" viewBox="0 0 60 60" version="1.1">
<g id="surface1">
<path style=" stroke:none;fill-rule:nonzero;fill:rgb(100%,100%,100%);fill-opacity:1;" d="M 51.210938 51.214844 C 39.496094 62.914062 20.519531 62.90625 8.8125 51.199219 C -2.890625 39.488281 -2.890625 20.511719 8.8125 8.800781 C 20.519531 -2.90625 39.496094 -2.914062 51.210938 8.785156 C 56.839844 14.410156 60.003906 22.042969 60.003906 30 C 60.003906 37.957031 56.839844 45.589844 51.210938 51.214844 "/>
<path style=" stroke:none;fill-rule:nonzero;fill:rgb(0%,29.019608%,59.215686%);fill-opacity:1;" d="M 53.90625 14.5 C 56.429688 22.632812 53.492188 31.472656 46.597656 36.476562 C 37.992188 42.808594 25.453125 42.816406 8.136719 48.273438 C 17.796875 59.839844 34.796875 61.882812 46.921875 52.933594 C 59.046875 43.988281 62.109375 27.144531 53.90625 14.5 "/>
<path style=" stroke:none;fill-rule:nonzero;fill:rgb(92.156863%,0%,16.078431%);fill-opacity:1;" d="M 47.074219 7.199219 C 35.761719 -1.289062 19.9375 -0.195312 9.898438 9.761719 C -0.140625 19.722656 -1.355469 35.539062 7.042969 46.914062 C 26.242188 41.296875 41.300781 26.355469 47.074219 7.199219 "/>
</g>
</svg>
