<svg width="70" height="70" viewBox="0 0 70 70" fill="none" xmlns="http://www.w3.org/2000/svg">
<g id="seo 1" clip-path="url(#clip0_1_934)">
<g id="Group">
<path id="Vector" fill-rule="evenodd" clip-rule="evenodd" d="M7.65625 13.1227V15.3102H57.9688V13.1227H7.65625Z" fill="#212D4D"/>
<path id="Vector_2" d="M13.125 9.84387C13.125 10.134 13.0098 10.4121 12.8046 10.6172C12.5995 10.8223 12.3213 10.9376 12.0312 10.9376C11.7412 10.9376 11.463 10.8223 11.2579 10.6172C11.0527 10.4121 10.9375 10.134 10.9375 9.84387C10.9375 9.55379 11.0527 9.27541 11.2579 9.07029C11.463 8.86517 11.7412 8.75012 12.0312 8.75012C12.3213 8.75012 12.5995 8.86517 12.8046 9.07029C13.0098 9.27541 13.125 9.55379 13.125 9.84387ZM17.5 9.84387C17.5 10.134 17.3847 10.4121 17.1796 10.6172C16.9745 10.8223 16.6963 10.9376 16.4062 10.9376C16.1162 10.9376 15.838 10.8223 15.6329 10.6172C15.4278 10.4121 15.3125 10.134 15.3125 9.84387C15.3125 9.55379 15.4278 9.27541 15.6329 9.07029C15.838 8.86517 16.1162 8.75012 16.4062 8.75012C16.6963 8.75012 16.9745 8.86517 17.1796 9.07029C17.3847 9.27541 17.5 9.55379 17.5 9.84387ZM21.875 9.84387C21.875 10.134 21.7598 10.4121 21.5546 10.6172C21.3495 10.8223 21.0713 10.9376 20.7812 10.9376C20.4912 10.9376 20.213 10.8223 20.0079 10.6172C19.8027 10.4121 19.6875 10.134 19.6875 9.84387C19.6875 9.55379 19.8027 9.27541 20.0079 9.07029C20.213 8.86517 20.4912 8.75012 20.7812 8.75012C21.0713 8.75012 21.3495 8.86517 21.5546 9.07029C21.7598 9.27541 21.875 9.55379 21.875 9.84387Z" fill="#1F42FF"/>
<path id="Vector_3" d="M7.65625 4.37274C7.36617 4.37274 7.08799 4.48806 6.88287 4.69318C6.67775 4.89829 6.5625 5.17641 6.5625 5.46649V55.779C6.5625 56.0691 6.67775 56.3475 6.88287 56.5526C7.08799 56.7577 7.36617 56.8727 7.65625 56.8727H53.7228C54.0129 56.8727 54.2911 56.7577 54.4962 56.5526C54.7014 56.3475 54.8165 56.0691 54.8165 55.779C54.8165 55.4889 54.7014 55.2108 54.4962 55.0057C54.2911 54.8006 54.0129 54.6852 53.7228 54.6852H8.75V6.56024H56.875V17.5242C56.875 17.8143 56.9902 18.0924 57.1954 18.2975C57.4005 18.5026 57.6787 18.6179 57.9688 18.6179C58.2588 18.6179 58.537 18.5026 58.7421 18.2975C58.9473 18.0924 59.0625 17.8143 59.0625 17.5242V5.46649C59.0625 5.17641 58.9473 4.89829 58.7421 4.69318C58.537 4.48806 58.2588 4.37274 57.9688 4.37274H7.65625ZM57.9513 20.5451C57.8076 20.5474 57.6659 20.5777 57.534 20.6348C57.4022 20.6919 57.2829 20.7746 57.183 20.8778C57.083 20.981 57.0043 21.1028 56.9515 21.2364C56.8987 21.37 56.8727 21.5125 56.875 21.6562V23.1088C56.875 23.3989 56.9902 23.677 57.1954 23.8821C57.4005 24.0873 57.6787 24.2026 57.9688 24.2026C58.2588 24.2026 58.537 24.0873 58.7421 23.8821C58.9473 23.677 59.0625 23.3989 59.0625 23.1088V21.6562C59.0649 21.5096 59.0377 21.364 58.9827 21.2281C58.9277 21.0922 58.8459 20.9689 58.7423 20.8652C58.6386 20.7616 58.5152 20.6799 58.3793 20.6249C58.2434 20.5699 58.0978 20.5427 57.9513 20.5451ZM57.9513 26.0312C57.8076 26.0335 57.6659 26.0641 57.534 26.1212C57.4022 26.1783 57.2829 26.2607 57.183 26.3639C57.083 26.4671 57.0043 26.5889 56.9515 26.7225C56.8987 26.8561 56.8727 26.9989 56.875 27.1426V51.0125C56.875 51.3026 56.9902 51.5807 57.1954 51.7858C57.4005 51.991 57.6787 52.1063 57.9688 52.1063C58.2588 52.1063 58.537 51.991 58.7421 51.7858C58.9473 51.5807 59.0625 51.3026 59.0625 51.0125V27.1426C59.0649 26.996 59.0377 26.8504 58.9827 26.7145C58.9277 26.5786 58.8459 26.455 58.7423 26.3513C58.6386 26.2477 58.5152 26.166 58.3793 26.111C58.2434 26.056 58.0978 26.0288 57.9513 26.0312Z" fill="#212D4D"/>
<path id="Vector_4" d="M33.9062 30.6227C33.6162 30.6227 33.338 30.7381 33.1329 30.9432C32.9277 31.1483 32.8125 31.4264 32.8125 31.7165V51.404C32.8125 51.6941 32.9277 51.9725 33.1329 52.1776C33.338 52.3827 33.6162 52.4977 33.9062 52.4977H38.2812C38.5713 52.4977 38.8495 52.3827 39.0546 52.1776C39.2598 51.9725 39.375 51.6941 39.375 51.404V31.7165C39.375 31.4264 39.2598 31.1483 39.0546 30.9432C38.8495 30.7381 38.5713 30.6227 38.2812 30.6227H33.9062ZM35 32.8102H37.1875V50.3102H35V32.8102ZM42.6562 34.9977C42.3662 34.9977 42.088 35.1131 41.8829 35.3182C41.6777 35.5233 41.5625 35.8014 41.5625 36.0915V51.404C41.5625 51.6941 41.6777 51.9725 41.8829 52.1776C42.088 52.3827 42.3662 52.4977 42.6562 52.4977H47.0312C47.3213 52.4977 47.5995 52.3827 47.8046 52.1776C48.0098 51.9725 48.125 51.6941 48.125 51.404V36.0915C48.125 35.8014 48.0098 35.5233 47.8046 35.3182C47.5995 35.1131 47.3213 34.9977 47.0312 34.9977H42.6562ZM43.75 37.1852H45.9375V50.3102H43.75V37.1852ZM25.1562 45.9352C24.8662 45.9352 24.588 46.0506 24.3829 46.2557C24.1777 46.4608 24.0625 46.7389 24.0625 47.029V51.404C24.0625 51.6941 24.1777 51.9725 24.3829 52.1776C24.588 52.3827 24.8662 52.4977 25.1562 52.4977H29.5312C29.8213 52.4977 30.0995 52.3827 30.3046 52.1776C30.5098 51.9725 30.625 51.6941 30.625 51.404V47.029C30.625 46.7389 30.5098 46.4608 30.3046 46.2557C30.0995 46.0506 29.8213 45.9352 29.5312 45.9352H25.1562ZM26.25 48.1227H28.4375V50.3102H26.25V48.1227ZM16.4062 39.3727C16.1162 39.3727 15.838 39.4881 15.6329 39.6932C15.4277 39.8983 15.3125 40.1764 15.3125 40.4665V51.404C15.3125 51.6941 15.4277 51.9725 15.6329 52.1776C15.838 52.3827 16.1162 52.4977 16.4062 52.4977H20.7812C21.0713 52.4977 21.3495 52.3827 21.5546 52.1776C21.7597 51.9725 21.875 51.6941 21.875 51.404V40.4665C21.875 40.1764 21.7597 39.8983 21.5546 39.6932C21.3495 39.4881 21.0713 39.3727 20.7812 39.3727H16.4062ZM17.5 41.5602H19.6875V50.3102H17.5V41.5602Z" fill="#1F42FF"/>
<path id="Vector_5" fill-rule="evenodd" clip-rule="evenodd" d="M49 45.4367C48.8709 45.4367 48.7397 45.4804 48.6063 45.5526C48.3438 45.6904 48.0813 45.9244 47.8844 46.1256C47.8837 46.1256 47.8829 46.1256 47.8822 46.1256C47.8808 46.1255 47.8793 46.1255 47.8778 46.1256V46.1606C47.8025 46.2322 47.7323 46.3089 47.6678 46.3903C47.6175 46.4581 47.5934 46.5215 47.5956 46.5828C47.6031 46.6543 47.6329 46.7218 47.6809 46.7753C47.7334 46.8409 47.81 46.9197 47.9062 47.0159L51.1788 50.2841C51.1802 50.2842 51.1817 50.2842 51.1832 50.2841C51.1846 50.2842 51.186 50.2842 51.1875 50.2841C51.189 50.2842 51.1904 50.2842 51.1919 50.2841C51.1934 50.2842 51.1948 50.2842 51.1962 50.2841C51.1977 50.2842 51.1992 50.2842 51.2006 50.2841C51.2021 50.2842 51.2035 50.2842 51.205 50.2841C51.2064 50.2842 51.2079 50.2842 51.2094 50.2841C51.2109 50.2842 51.2123 50.2842 51.2137 50.2841C51.2152 50.2842 51.2167 50.2842 51.2181 50.2841C51.2196 50.2842 51.221 50.2842 51.2225 50.2841C51.2239 50.2842 51.2254 50.2842 51.2269 50.2841L47.9588 47.0159C47.8802 46.9435 47.8063 46.8661 47.7378 46.7841C47.6897 46.7229 47.6722 46.677 47.67 46.6354C47.6678 46.5916 47.6853 46.5434 47.7291 46.4821C47.7931 46.4003 47.8633 46.3236 47.9391 46.2525C47.9405 46.2526 47.942 46.2526 47.9434 46.2525C47.9449 46.2526 47.9464 46.2526 47.9478 46.2525V46.2218C48.1494 46.0033 48.3823 45.8163 48.639 45.6664C48.7502 45.6037 48.8747 45.5685 49.0022 45.5635C49.116 45.5635 49.2187 45.5985 49.3084 45.6925L52.6509 49.0328C52.6524 49.0329 52.6539 49.0329 52.6554 49.0328C52.6568 49.0329 52.6582 49.0329 52.6597 49.0328C52.6612 49.0329 52.6626 49.0329 52.6641 49.0328C52.6656 49.0329 52.667 49.0329 52.6684 49.0328C52.6699 49.0329 52.6714 49.0329 52.6728 49.0328C52.6743 49.0329 52.6757 49.0329 52.6772 49.0328C52.6786 49.0329 52.6801 49.0329 52.6816 49.0328C52.683 49.0329 52.6845 49.0329 52.6859 49.0328C52.6874 49.0329 52.6889 49.0329 52.6903 49.0328C52.6918 49.0329 52.6932 49.0329 52.6947 49.0328C52.6961 49.0329 52.6976 49.0329 52.6991 49.0328L49.3632 45.6968C49.3169 45.6477 49.2609 45.6089 49.1987 45.5825C49.1366 45.5561 49.0697 45.543 49.0022 45.5438L49 45.4367Z" fill="#1F42FF"/>
<path id="Vector_6" fill-rule="evenodd" clip-rule="evenodd" d="M54.1538 47.773C53.0929 47.773 52.0297 48.1819 51.2356 48.9978C51.0397 49.2011 50.93 49.4725 50.9294 49.7548L51.2356 49.0088C50.4901 49.7836 50.0804 50.8212 50.0956 51.8964C50.1107 52.9716 50.5495 53.9974 51.3166 54.751L62.9628 66.3971C63.8553 67.3137 64.9928 67.7315 66.0472 67.6746C67.0714 67.6094 68.0352 67.1679 68.7531 66.4345C69.4553 65.7345 69.9387 64.785 69.9956 63.7306C70.0525 62.6806 69.6281 61.5432 68.7181 60.6507L57.0631 48.9957C56.6844 48.6079 56.2319 48.2999 55.7322 48.0899C55.2325 47.8799 54.6958 47.7721 54.1538 47.773ZM54.1538 49.9471C54.6416 49.9471 55.125 50.1397 55.4991 50.5247C55.5034 50.532 55.5078 50.5393 55.5122 50.5466L67.176 62.2104C67.1804 62.2104 67.1847 62.2104 67.1891 62.2104C67.7141 62.7201 67.8322 63.1664 67.8081 63.6104C67.7682 64.0955 67.5546 64.5498 67.2066 64.89C66.8685 65.2373 66.4164 65.451 65.9334 65.4916C65.4872 65.5157 65.041 65.3909 64.5335 64.8681C64.5284 64.8681 64.5232 64.8681 64.5181 64.8681L52.8544 53.2043C52.8501 53.197 52.8457 53.1897 52.8413 53.1824C52.6631 53.0114 52.5207 52.8066 52.4225 52.58C52.3243 52.3534 52.2722 52.1097 52.2691 51.8628C52.2661 51.6158 52.3122 51.3707 52.4048 51.1418C52.4974 50.9128 52.6346 50.7046 52.8084 50.5292C52.8114 50.5292 52.8143 50.5292 52.8172 50.5292C52.9907 50.3497 53.1983 50.2065 53.4278 50.1081C53.6573 50.0097 53.9041 49.9579 54.1538 49.9559V49.9471Z" fill="#1F42FF"/>
<path id="Vector_7" d="M28.4988 26.4337C22.6472 32.2853 22.5663 41.7462 28.3457 47.5234C34.1228 53.3028 43.5816 53.2217 49.4331 47.3701C55.2869 41.5186 55.37 32.0578 49.5907 26.2762C43.8113 20.499 34.3504 20.5822 28.4988 26.4337ZM30.0453 27.9801C35.0765 22.9488 43.1157 22.8944 48.0441 27.8228C52.9747 32.7534 52.9178 40.7947 47.8866 45.8238C42.8575 50.8528 34.8206 50.9074 29.89 45.9768C24.9616 41.0461 25.0163 33.0092 30.0432 27.978L30.0453 27.9801Z" fill="#212D4D"/>
</g>
</g>
<defs>
<clipPath id="clip0_1_934">
<rect width="70" height="70" fill="white"/>
</clipPath>
</defs>
</svg>
