<svg width="24" height="25" viewBox="0 0 24 25" fill="none" xmlns="http://www.w3.org/2000/svg">
<g id="twitter-fill">
<path id="Vector" d="M22.2125 5.97075C21.4491 6.30845 20.6395 6.53025 19.8106 6.62881C20.6839 6.10602 21.3374 5.2836 21.6493 4.31475C20.8287 4.80231 19.9305 5.14547 18.9938 5.32931C18.2031 4.48576 17.098 4.00773 15.9418 4.00904C13.6326 4.00904 11.7597 5.88131 11.7597 8.19153C11.7597 8.51928 11.7973 8.83712 11.8676 9.14379C8.39048 8.96874 5.31008 7.30475 3.24678 4.77411C2.87529 5.41237 2.68006 6.13788 2.68105 6.87637C2.68105 8.32729 3.41961 9.60794 4.5415 10.3577C3.87738 10.3367 3.22789 10.1573 2.64719 9.83443C2.64655 9.852 2.64654 9.86957 2.64654 9.88618C2.64654 11.9131 4.0882 13.6039 6.002 13.9878C5.64281 14.085 5.27233 14.1341 4.90022 14.1338C4.62997 14.1338 4.36772 14.1089 4.1128 14.06C4.64532 15.7212 6.18886 16.9306 8.0196 16.9638C6.53813 18.1265 4.70869 18.7573 2.82543 18.7546C2.49212 18.7549 2.15909 18.7352 1.82812 18.6958C3.74004 19.9249 5.96552 20.5772 8.23842 20.5748C15.9316 20.5748 20.138 14.2022 20.138 8.67581C20.138 8.495 20.1336 8.31356 20.1256 8.13467C20.9443 7.54315 21.651 6.81037 22.2125 5.97075Z" fill="white"/>
</g>
</svg>
