<svg width="70" height="70" viewBox="0 0 70 70" fill="none" xmlns="http://www.w3.org/2000/svg">
<g id="web-development 1">
<path id="Vector" d="M46.4844 62.7594C46.1453 62.7594 45.8172 62.5954 45.6094 62.3001C44.1328 60.1563 43.05 57.5422 42.3062 54.3266C42.175 53.7579 42.525 53.1891 43.0937 53.0579C43.6625 52.9266 44.2312 53.2766 44.3625 53.8454C45.0516 56.7985 46.025 59.1719 47.3484 61.0969C47.6766 61.5782 47.5562 62.2454 47.075 62.5735C46.9 62.6938 46.6922 62.7594 46.4844 62.7594ZM23.7016 62.7594C23.4937 62.7594 23.275 62.6938 23.0891 62.5626C22.6078 62.2235 22.4984 61.5672 22.8375 61.086C24.0516 59.3579 24.9812 56.9954 25.6703 53.8563C25.7906 53.2876 26.3594 52.9266 26.9391 53.0469C27.5078 53.1672 27.8687 53.736 27.7484 54.3157C26.9937 57.7391 25.9547 60.3532 24.5766 62.311C24.3687 62.5954 24.0406 62.7594 23.7016 62.7594Z" fill="#212D4D"/>
<path id="Vector_2" d="M48.4859 66.3469H21.5141C20.2891 66.3469 19.3266 65.4938 19.3266 64.4109V62.5625C19.3266 61.5016 20.3109 60.6375 21.5141 60.6375H48.475C49.6781 60.6375 50.6625 61.5016 50.6625 62.5625V64.4C50.6625 65.4938 49.7109 66.3469 48.4859 66.3469ZM21.4594 64.2141C21.4813 64.2141 21.5031 64.2141 21.525 64.2141H48.4859C48.5078 64.2141 48.5297 64.2141 48.5516 64.2141V62.7594C48.5297 62.7594 48.5078 62.7594 48.4859 62.7594H21.5141C21.4922 62.7594 21.4703 62.7594 21.4484 62.7594V64.2141H21.4594ZM67.5281 55.1469H2.47187C1.11563 55.1469 0 54.0313 0 52.6641V6.13594C0 4.76875 1.11563 3.66406 2.47187 3.66406H67.5172C68.8844 3.66406 69.9891 4.77969 69.9891 6.13594V52.675C70 54.0312 68.8844 55.1469 67.5281 55.1469ZM2.47187 5.775C2.275 5.775 2.12188 5.92812 2.12188 6.125V52.6641C2.12188 52.8609 2.275 53.0141 2.47187 53.0141H67.5172C67.7141 53.0141 67.8672 52.8609 67.8672 52.6641V6.13594C67.8672 5.93906 67.7141 5.78594 67.5172 5.78594H2.47187V5.775Z" fill="#212D4D"/>
<path id="Vector_3" d="M64.4438 51.0782H5.55626C4.74689 51.0782 4.09064 50.4219 4.09064 49.6125V9.18755C4.09064 8.37817 4.74689 7.72192 5.55626 7.72192H64.4438C65.2531 7.72192 65.9094 8.37817 65.9094 9.18755V49.6125C65.9094 50.4219 65.2531 51.0782 64.4438 51.0782ZM6.21251 48.9563H63.7985V9.8438H6.21251V48.9563Z" fill="#212D4D"/>
<path id="Vector_4" d="M23.2214 28.5434C21.9942 28.5434 21 27.5491 21 26.322C21 25.0949 21.9942 24.1006 23.2214 24.1006C24.4485 24.1006 25.4427 25.0949 25.4427 26.322C25.4427 27.5491 24.4485 28.5434 23.2214 28.5434ZM23.2214 25.8383C22.9527 25.8383 22.7377 26.0533 22.7377 26.322C22.7377 26.5907 22.9527 26.8057 23.2214 26.8057C23.4901 26.8057 23.7051 26.5907 23.7051 26.322C23.7051 26.0533 23.4901 25.8383 23.2214 25.8383ZM23.2214 33.6937C21.9942 33.6937 21 32.6995 21 31.4723C21 30.2452 21.9942 29.251 23.2214 29.251C24.4485 29.251 25.4427 30.2452 25.4427 31.4723C25.4427 32.6995 24.4485 33.6937 23.2214 33.6937ZM23.2214 30.9887C22.9527 30.9887 22.7377 31.2036 22.7377 31.4723C22.7377 31.7411 22.9527 31.956 23.2214 31.956C23.4901 31.956 23.7051 31.7411 23.7051 31.4723C23.7051 31.2036 23.4901 30.9887 23.2214 30.9887ZM23.2214 38.8351C21.9942 38.8351 21 37.8409 21 36.6137C21 35.3866 21.9942 34.3924 23.2214 34.3924C24.4485 34.3924 25.4427 35.3866 25.4427 36.6137C25.4427 37.8409 24.4485 38.8351 23.2214 38.8351ZM23.2214 36.1301C22.9527 36.1301 22.7377 36.345 22.7377 36.6137C22.7377 36.8825 22.9527 37.0974 23.2214 37.0974C23.4901 37.0974 23.7051 36.8825 23.7051 36.6137C23.7051 36.354 23.4901 36.1301 23.2214 36.1301ZM23.2214 43.9855C21.9942 43.9855 21 42.9912 21 41.7641C21 40.537 21.9942 39.5427 23.2214 39.5427C24.4485 39.5427 25.4427 40.537 25.4427 41.7641C25.4427 42.9912 24.4485 43.9855 23.2214 43.9855ZM23.2214 41.2804C22.9527 41.2804 22.7377 41.4954 22.7377 41.7641C22.7377 42.0328 22.9527 42.2478 23.2214 42.2478C23.4901 42.2478 23.7051 42.0328 23.7051 41.7641C23.7051 41.4954 23.4901 41.2804 23.2214 41.2804ZM30.396 23.7423C30.1721 23.7423 29.9392 23.6528 29.769 23.4736L26.4012 19.9714C26.0787 19.631 26.0787 19.1025 26.4012 18.7711L29.769 15.2689C30.1004 14.9196 30.6558 14.9106 30.9962 15.242C31.3455 15.5734 31.3544 16.1288 31.023 16.4691L28.2284 19.3713L31.023 22.2734C31.3544 22.6227 31.3455 23.1691 30.9962 23.5005C30.8349 23.6617 30.611 23.7423 30.396 23.7423ZM42.4434 23.7423C42.2284 23.7423 42.0134 23.6617 41.8432 23.5005C41.4939 23.1691 41.485 22.6137 41.8164 22.2734L44.611 19.3713L41.8164 16.4691C41.485 16.1198 41.4939 15.5734 41.8432 15.242C42.1836 14.9106 42.739 14.9196 43.0704 15.2689L46.4383 18.7711C46.7607 19.1115 46.7607 19.64 46.4383 19.9714L43.0704 23.4736C42.9002 23.6528 42.6673 23.7423 42.4434 23.7423ZM34.6596 23.7423C34.5253 23.7423 34.3999 23.7155 34.2745 23.6528C33.8445 23.4378 33.6743 22.9183 33.8893 22.4883L37.4095 15.4839C37.6244 15.0539 38.144 14.8837 38.5739 15.0987C39.0038 15.3137 39.174 15.8332 38.9591 16.2631L35.4389 23.2676C35.2777 23.5632 34.9731 23.7423 34.6596 23.7423ZM33.54 27.1908H28.4075C27.9239 27.1908 27.5387 26.8057 27.5387 26.322C27.5387 25.8383 27.9239 25.4532 28.4075 25.4532H33.54C34.0237 25.4532 34.4088 25.8383 34.4088 26.322C34.4088 26.8057 34.0237 27.1908 33.54 27.1908ZM48.1312 27.1908H36.9974C36.5138 27.1908 36.1286 26.8057 36.1286 26.322C36.1286 25.8383 36.5138 25.4532 36.9974 25.4532H48.1312C48.6148 25.4532 49 25.8383 49 26.322C49 26.8057 48.6059 27.1908 48.1312 27.1908ZM40.4549 32.3412H28.4075C27.9239 32.3412 27.5387 31.956 27.5387 31.4723C27.5387 30.9887 27.9239 30.6035 28.4075 30.6035H40.4549C40.9386 30.6035 41.3237 30.9887 41.3237 31.4723C41.3237 31.9471 40.9386 32.3412 40.4549 32.3412ZM48.1312 32.3412H44.0019C43.5182 32.3412 43.1331 31.956 43.1331 31.4723C43.1331 30.9887 43.5182 30.6035 44.0019 30.6035H48.1312C48.6148 30.6035 49 30.9887 49 31.4723C49 31.9471 48.6059 32.3412 48.1312 32.3412ZM33.54 37.4826H28.4075C27.9239 37.4826 27.5387 37.0974 27.5387 36.6137C27.5387 36.1301 27.9239 35.7449 28.4075 35.7449H33.54C34.0237 35.7449 34.4088 36.1301 34.4088 36.6137C34.4088 37.0974 34.0237 37.4826 33.54 37.4826ZM48.1312 37.4826H36.9974C36.5138 37.4826 36.1286 37.0974 36.1286 36.6137C36.1286 36.1301 36.5138 35.7449 36.9974 35.7449H48.1312C48.6148 35.7449 49 36.1301 49 36.6137C49 37.0974 48.6059 37.4826 48.1312 37.4826ZM32.071 42.6329H28.4075C27.9239 42.6329 27.5387 42.2478 27.5387 41.7641C27.5387 41.2804 27.9239 40.8953 28.4075 40.8953H32.071C32.5547 40.8953 32.9399 41.2804 32.9399 41.7641C32.9399 42.2478 32.5547 42.6329 32.071 42.6329ZM40.0518 42.6329H34.588C34.1043 42.6329 33.7191 42.2478 33.7191 41.7641C33.7191 41.2804 34.1043 40.8953 34.588 40.8953H40.0518C40.5355 40.8953 40.9207 41.2804 40.9207 41.7641C40.9207 42.2478 40.5266 42.6329 40.0518 42.6329ZM48.1312 42.6329H42.4523C41.9686 42.6329 41.5835 42.2478 41.5835 41.7641C41.5835 41.2804 41.9686 40.8953 42.4523 40.8953H48.1312C48.6148 40.8953 49 41.2804 49 41.7641C49 42.2478 48.6059 42.6329 48.1312 42.6329Z" fill="#1F42FF"/>
</g>
</svg>
